<svg xmlns="http://www.w3.org/2000/svg" width="1600" height="680" viewBox="0 0 1600 680">
<style>.title{font:600 16px "Segoe UI",Ubuntu,sans-serif;fill:#2f80ed;}.sub{font:400 12px "Segoe UI",Ubuntu,sans-serif;fill:#6e7781;}.label{font:400 11px "Segoe UI",Ubuntu,sans-serif;fill:#434d58;}.legend-label{font:400 10px "Segoe UI",Ubuntu,sans-serif;fill:#434d58;}.tick{font:400 10px "Segoe UI",Ubuntu,sans-serif;fill:#8b949e;}.axis{stroke:#e4e2e2;stroke-width:1px;}.grid{stroke:#f0f0f0;stroke-width:1px;}</style>
<rect width="1600" height="680" fill="#ffffff"/>
<text x="800.0" y="28" text-anchor="middle" class="title">语言 → 项目 流向分析</text>
<path d="M60.0,519.9 C800.0,519.9 800.0,279.6 1540.0,279.6 L1540.0,279.6 C800.0,279.6 800.0,532.5 60.0,532.5 Z" fill="#bb6bd9" fill-opacity="0.60" stroke="#bb6bd9" stroke-width="0.3"/>
<path d="M60.0,458.2 C800.0,458.2 800.0,527.5 1540.0,527.5 L1540.0,538.9 C800.0,538.9 800.0,458.2 60.0,458.2 Z" fill="#3572A5" fill-opacity="0.60" stroke="#3572A5" stroke-width="0.3"/>
<path d="M60.0,501.3 C800.0,501.3 800.0,279.5 1540.0,279.5 L1540.0,279.6 C800.0,279.6 800.0,513.9 60.0,513.9 Z" fill="#384D54" fill-opacity="0.60" stroke="#384D54" stroke-width="0.3"/>
<path d="M60.0,494.8 C800.0,494.8 800.0,451.5 1540.0,451.5 L1540.0,452.0 C800.0,452.0 800.0,495.3 60.0,495.3 Z" fill="#E34C26" fill-opacity="0.60" stroke="#E34C26" stroke-width="0.3"/>
<path d="M60.0,457.0 C800.0,457.0 800.0,510.2 1540.0,510.2 L1540.0,521.5 C800.0,521.5 800.0,458.2 60.0,458.2 Z" fill="#3572A5" fill-opacity="0.60" stroke="#3572A5" stroke-width="0.3"/>
<path d="M60.0,492.6 C800.0,492.6 800.0,492.8 1540.0,492.8 L1540.0,504.2 C800.0,504.2 800.0,494.8 60.0,494.8 Z" fill="#E34C26" fill-opacity="0.60" stroke="#E34C26" stroke-width="0.3"/>
<path d="M60.0,454.9 C800.0,454.9 800.0,475.4 1540.0,475.4 L1540.0,486.8 C800.0,486.8 800.0,457.0 60.0,457.0 Z" fill="#3572A5" fill-opacity="0.60" stroke="#3572A5" stroke-width="0.3"/>
<path d="M60.0,450.8 C800.0,450.8 800.0,458.0 1540.0,458.0 L1540.0,469.4 C800.0,469.4 800.0,454.9 60.0,454.9 Z" fill="#3572A5" fill-opacity="0.60" stroke="#3572A5" stroke-width="0.3"/>
<path d="M60.0,482.8 C800.0,482.8 800.0,406.8 1540.0,406.8 L1540.0,414.7 C800.0,414.7 800.0,492.6 60.0,492.6 Z" fill="#E34C26" fill-opacity="0.60" stroke="#E34C26" stroke-width="0.3"/>
<path d="M60.0,464.2 C800.0,464.2 800.0,440.5 1540.0,440.5 L1540.0,451.5 C800.0,451.5 800.0,476.8 60.0,476.8 Z" fill="#DEA584" fill-opacity="0.60" stroke="#DEA584" stroke-width="0.3"/>
<path d="M60.0,435.5 C800.0,435.5 800.0,420.7 1540.0,420.7 L1540.0,434.5 C800.0,434.5 800.0,450.8 60.0,450.8 Z" fill="#3572A5" fill-opacity="0.60" stroke="#3572A5" stroke-width="0.3"/>
<path d="M60.0,301.9 C800.0,301.9 800.0,285.6 1540.0,285.6 L1540.0,406.8 C800.0,406.8 800.0,435.5 60.0,435.5 Z" fill="#3572A5" fill-opacity="0.60" stroke="#3572A5" stroke-width="0.3"/>
<path d="M60.0,60.0 C800.0,60.0 800.0,60.0 1540.0,60.0 L1540.0,279.5 C800.0,279.5 800.0,301.9 60.0,301.9 Z" fill="#3572A5" fill-opacity="0.60" stroke="#3572A5" stroke-width="0.3"/>
<rect x="40" y="60.0" width="20" height="398.2" fill="#3572A5" rx="2"/>
<rect x="40" y="464.2" width="20" height="12.6" fill="#DEA584" rx="2"/>
<rect x="40" y="482.8" width="20" height="12.6" fill="#E34C26" rx="2"/>
<rect x="40" y="501.3" width="20" height="12.6" fill="#384D54" rx="2"/>
<rect x="40" y="519.9" width="20" height="12.6" fill="#bb6bd9" rx="2"/>
<rect x="1540" y="60.0" width="20" height="219.6" fill="#2f80ed" rx="2"/>
<rect x="1540" y="285.6" width="20" height="129.1" fill="#eb5757" rx="2"/>
<rect x="1540" y="420.7" width="20" height="13.8" fill="#f2994a" rx="2"/>
<rect x="1540" y="440.5" width="20" height="11.5" fill="#56ccf2" rx="2"/>
<rect x="1540" y="458.0" width="20" height="11.4" fill="#bb6bd9" rx="2"/>
<rect x="1540" y="475.4" width="20" height="11.4" fill="#27ae60" rx="2"/>
<rect x="1540" y="492.8" width="20" height="11.4" fill="#e91e63" rx="2"/>
<rect x="1540" y="510.2" width="20" height="11.4" fill="#00bcd4" rx="2"/>
<rect x="1540" y="527.5" width="20" height="11.4" fill="#ff5722" rx="2"/>
<rect x="641.0" y="571.0" width="9" height="9" fill="#3572A5" rx="2"/><text x="654.0" y="579.0" class="legend-label" text-anchor="start">Python</text>
<rect x="704.0" y="571.0" width="9" height="9" fill="#DEA584" rx="2"/><text x="717.0" y="579.0" class="legend-label" text-anchor="start">Rust</text>
<rect x="754.0" y="571.0" width="9" height="9" fill="#E34C26" rx="2"/><text x="767.0" y="579.0" class="legend-label" text-anchor="start">HTML</text>
<rect x="804.0" y="571.0" width="9" height="9" fill="#384D54" rx="2"/><text x="817.0" y="579.0" class="legend-label" text-anchor="start">Dockerfile</text>
<rect x="893.0" y="571.0" width="9" height="9" fill="#bb6bd9" rx="2"/><text x="906.0" y="579.0" class="legend-label" text-anchor="start">Mustache</text>
<rect x="8.0" y="616.0" width="9" height="9" fill="#2f80ed" rx="2"/><text x="21.0" y="624.0" class="legend-label" text-anchor="start">gsuid_core</text>
<rect x="97.0" y="616.0" width="9" height="9" fill="#eb5757" rx="2"/><text x="110.0" y="624.0" class="legend-label" text-anchor="start">WutheringWavesUID</text>
<rect x="231.5" y="616.0" width="9" height="9" fill="#f2994a" rx="2"/><text x="244.5" y="624.0" class="legend-label" text-anchor="start">astrbot_plugin_livingmemory</text>
<rect x="431.0" y="616.0" width="9" height="9" fill="#56ccf2" rx="2"/><text x="444.0" y="624.0" class="legend-label" text-anchor="start">blackhole_sim</text>
<rect x="539.5" y="616.0" width="9" height="9" fill="#bb6bd9" rx="2"/><text x="552.5" y="624.0" class="legend-label" text-anchor="start">MoonShadow1976</text>
<rect x="654.5" y="616.0" width="9" height="9" fill="#27ae60" rx="2"/><text x="667.5" y="624.0" class="legend-label" text-anchor="start">wutheringwaves_gacha_record_converter</text>
<rect x="919.0" y="616.0" width="9" height="9" fill="#e91e63" rx="2"/><text x="932.0" y="624.0" class="legend-label" text-anchor="start">WutheringWaves_RedBlackList</text>
<rect x="1118.5" y="616.0" width="9" height="9" fill="#00bcd4" rx="2"/><text x="1131.5" y="624.0" class="legend-label" text-anchor="start">astrbot_plugin_ExchangeRateQuery</text>
<rect x="1350.5" y="616.0" width="9" height="9" fill="#ff5722" rx="2"/><text x="1363.5" y="624.0" class="legend-label" text-anchor="start">WutheringWaves_OverSea_StaticAssets</text>
</svg>