<svg xmlns="http://www.w3.org/2000/svg" width="1600" height="680" viewBox="0 0 1600 680">
<style>.title{font:600 16px "Segoe UI",Ubuntu,sans-serif;fill:#2f80ed;}.sub{font:400 12px "Segoe UI",Ubuntu,sans-serif;fill:#6e7781;}.label{font:400 11px "Segoe UI",Ubuntu,sans-serif;fill:#434d58;}.legend-label{font:400 14px "Segoe UI",Ubuntu,sans-serif;fill:#434d58;}.tick{font:400 10px "Segoe UI",Ubuntu,sans-serif;fill:#8b949e;}.axis{stroke:#e4e2e2;stroke-width:1px;}.grid{stroke:#f0f0f0;stroke-width:1px;}</style>
<rect width="1600" height="680" fill="#ffffff"/>
<text x="800.0" y="28" text-anchor="middle" class="title">语言 → 项目 流向分析</text>
<path d="M60.0,511.4 C800.0,511.4 800.0,447.9 1540.0,447.9 L1540.0,448.8 C800.0,448.8 800.0,512.4 60.0,512.4 Z" fill="#E34C26" fill-opacity="0.60" stroke="#E34C26" stroke-width="0.3"/>
<path d="M60.0,335.5 C800.0,335.5 800.0,525.9 1540.0,525.9 L1540.0,537.6 C800.0,537.6 800.0,336.7 60.0,336.7 Z" fill="#3572A5" fill-opacity="0.60" stroke="#3572A5" stroke-width="0.3"/>
<path d="M60.0,332.9 C800.0,332.9 800.0,508.1 1540.0,508.1 L1540.0,519.9 C800.0,519.9 800.0,335.5 60.0,335.5 Z" fill="#3572A5" fill-opacity="0.60" stroke="#3572A5" stroke-width="0.3"/>
<path d="M60.0,518.4 C800.0,518.4 800.0,363.1 1540.0,363.1 L1540.0,368.5 C800.0,368.5 800.0,531.5 60.0,531.5 Z" fill="#F1E05A" fill-opacity="0.60" stroke="#F1E05A" stroke-width="0.3"/>
<path d="M60.0,326.6 C800.0,326.6 800.0,490.3 1540.0,490.3 L1540.0,502.1 C800.0,502.1 800.0,332.9 60.0,332.9 Z" fill="#3572A5" fill-opacity="0.60" stroke="#3572A5" stroke-width="0.3"/>
<path d="M60.0,504.5 C800.0,504.5 800.0,472.5 1540.0,472.5 L1540.0,484.3 C800.0,484.3 800.0,511.4 60.0,511.4 Z" fill="#E34C26" fill-opacity="0.60" stroke="#E34C26" stroke-width="0.3"/>
<path d="M60.0,316.4 C800.0,316.4 800.0,454.8 1540.0,454.8 L1540.0,466.5 C800.0,466.5 800.0,326.6 60.0,326.6 Z" fill="#3572A5" fill-opacity="0.60" stroke="#3572A5" stroke-width="0.3"/>
<path d="M60.0,492.2 C800.0,492.2 800.0,241.8 1540.0,241.8 L1540.0,252.8 C800.0,252.8 800.0,504.5 60.0,504.5 Z" fill="#E34C26" fill-opacity="0.60" stroke="#E34C26" stroke-width="0.3"/>
<path d="M60.0,465.0 C800.0,465.0 800.0,428.9 1540.0,428.9 L1540.0,447.9 C800.0,447.9 800.0,486.2 60.0,486.2 Z" fill="#DEA584" fill-opacity="0.60" stroke="#DEA584" stroke-width="0.3"/>
<path d="M60.0,262.6 C800.0,262.6 800.0,374.5 1540.0,374.5 L1540.0,422.9 C800.0,422.9 800.0,316.4 60.0,316.4 Z" fill="#3572A5" fill-opacity="0.60" stroke="#3572A5" stroke-width="0.3"/>
<path d="M60.0,342.7 C800.0,342.7 800.0,258.8 1540.0,258.8 L1540.0,363.1 C800.0,363.1 800.0,459.0 60.0,459.0 Z" fill="#3178C6" fill-opacity="0.60" stroke="#3178C6" stroke-width="0.3"/>
<path d="M60.0,60.0 C800.0,60.0 800.0,60.0 1540.0,60.0 L1540.0,241.8 C800.0,241.8 800.0,262.6 60.0,262.6 Z" fill="#3572A5" fill-opacity="0.60" stroke="#3572A5" stroke-width="0.3"/>
<rect x="40" y="60.0" width="20" height="276.7" fill="#3572A5" rx="2"/>
<rect x="40" y="342.7" width="20" height="116.3" fill="#3178C6" rx="2"/>
<rect x="40" y="465.0" width="20" height="21.2" fill="#DEA584" rx="2"/>
<rect x="40" y="492.2" width="20" height="20.2" fill="#E34C26" rx="2"/>
<rect x="40" y="518.4" width="20" height="13.1" fill="#F1E05A" rx="2"/>
<rect x="1540" y="60.0" width="20" height="192.8" fill="#2f80ed" rx="2"/>
<rect x="1540" y="258.8" width="20" height="109.8" fill="#eb5757" rx="2"/>
<rect x="1540" y="374.5" width="20" height="48.3" fill="#f2994a" rx="2"/>
<rect x="1540" y="428.9" width="20" height="19.9" fill="#56ccf2" rx="2"/>
<rect x="1540" y="454.8" width="20" height="11.8" fill="#bb6bd9" rx="2"/>
<rect x="1540" y="472.5" width="20" height="11.8" fill="#27ae60" rx="2"/>
<rect x="1540" y="490.3" width="20" height="11.8" fill="#e91e63" rx="2"/>
<rect x="1540" y="508.1" width="20" height="11.8" fill="#00bcd4" rx="2"/>
<rect x="1540" y="525.9" width="20" height="11.8" fill="#ff5722" rx="2"/>
<text x="800.0" y="560" text-anchor="middle" class="sub">语言</text>
<rect x="591.0" y="574.0" width="14" height="14" fill="#3572A5" rx="2"/><text x="611.0" y="586.0" class="legend-label" text-anchor="start">Python</text>
<rect x="671.0" y="574.0" width="14" height="14" fill="#3178C6" rx="2"/><text x="691.0" y="586.0" class="legend-label" text-anchor="start">TypeScript</text>
<rect x="783.0" y="574.0" width="14" height="14" fill="#DEA584" rx="2"/><text x="803.0" y="586.0" class="legend-label" text-anchor="start">Rust</text>
<rect x="847.0" y="574.0" width="14" height="14" fill="#E34C26" rx="2"/><text x="867.0" y="586.0" class="legend-label" text-anchor="start">HTML</text>
<rect x="911.0" y="574.0" width="14" height="14" fill="#F1E05A" rx="2"/><text x="931.0" y="586.0" class="legend-label" text-anchor="start">JavaScript</text>
<text x="800.0" y="619" text-anchor="middle" class="sub">仓库</text>
<rect x="75.0" y="635.0" width="14" height="14" fill="#2f80ed" rx="2"/><text x="95.0" y="647.0" class="legend-label" text-anchor="start">WutheringWavesUID</text>
<rect x="243.0" y="635.0" width="14" height="14" fill="#eb5757" rx="2"/><text x="263.0" y="647.0" class="legend-label" text-anchor="start">chiral-pulse</text>
<rect x="371.0" y="635.0" width="14" height="14" fill="#f2994a" rx="2"/><text x="391.0" y="647.0" class="legend-label" text-anchor="start">WutheringWaves_OverSea_StaticAssets</text>
<rect x="683.0" y="635.0" width="14" height="14" fill="#56ccf2" rx="2"/><text x="703.0" y="647.0" class="legend-label" text-anchor="start">blackhole_sim</text>
<rect x="819.0" y="635.0" width="14" height="14" fill="#bb6bd9" rx="2"/><text x="839.0" y="647.0" class="legend-label" text-anchor="start">MoonShadow1976</text>
<rect x="963.0" y="635.0" width="14" height="14" fill="#27ae60" rx="2"/><text x="983.0" y="647.0" class="legend-label" text-anchor="start">WutheringWaves_RedBlackList</text>
<rect x="1211.0" y="635.0" width="14" height="14" fill="#e91e63" rx="2"/><text x="1231.0" y="647.0" class="legend-label" text-anchor="start">wutheringwaves_gacha_record_converter</text>
<rect x="539.0" y="657.0" width="14" height="14" fill="#00bcd4" rx="2"/><text x="559.0" y="669.0" class="legend-label" text-anchor="start">astrbot_plugin_ExchangeRateQuery</text>
<rect x="827.0" y="657.0" width="14" height="14" fill="#ff5722" rx="2"/><text x="847.0" y="669.0" class="legend-label" text-anchor="start">astrbot_plugin_livingmemory</text>
</svg>