<svg xmlns="http://www.w3.org/2000/svg" width="1600" height="680" viewBox="0 0 1600 680">
<style>.title{font:600 16px "Segoe UI",Ubuntu,sans-serif;fill:#2f80ed;}.sub{font:400 12px "Segoe UI",Ubuntu,sans-serif;fill:#6e7781;}.label{font:400 11px "Segoe UI",Ubuntu,sans-serif;fill:#434d58;}.legend-label{font:400 14px "Segoe UI",Ubuntu,sans-serif;fill:#434d58;}.tick{font:400 10px "Segoe UI",Ubuntu,sans-serif;fill:#8b949e;}.axis{stroke:#e4e2e2;stroke-width:1px;}.grid{stroke:#f0f0f0;stroke-width:1px;}</style>
<rect width="1600" height="680" fill="#ffffff"/>
<text x="800.0" y="28" text-anchor="middle" class="title">语言 → 项目 流向分析</text>
<path d="M60.0,483.9 C800.0,483.9 800.0,425.6 1540.0,425.6 L1540.0,426.5 C800.0,426.5 800.0,484.9 60.0,484.9 Z" fill="#E34C26" fill-opacity="0.60" stroke="#E34C26" stroke-width="0.3"/>
<path d="M60.0,325.6 C800.0,325.6 800.0,525.2 1540.0,525.2 L1540.0,537.1 C800.0,537.1 800.0,326.8 60.0,326.8 Z" fill="#3572A5" fill-opacity="0.60" stroke="#3572A5" stroke-width="0.3"/>
<path d="M60.0,323.0 C800.0,323.0 800.0,507.3 1540.0,507.3 L1540.0,519.2 C800.0,519.2 800.0,325.6 60.0,325.6 Z" fill="#3572A5" fill-opacity="0.60" stroke="#3572A5" stroke-width="0.3"/>
<path d="M60.0,518.4 C800.0,518.4 800.0,361.9 1540.0,361.9 L1540.0,367.4 C800.0,367.4 800.0,531.5 60.0,531.5 Z" fill="#F1E05A" fill-opacity="0.60" stroke="#F1E05A" stroke-width="0.3"/>
<path d="M60.0,316.6 C800.0,316.6 800.0,489.4 1540.0,489.4 L1540.0,501.3 C800.0,501.3 800.0,323.0 60.0,323.0 Z" fill="#3572A5" fill-opacity="0.60" stroke="#3572A5" stroke-width="0.3"/>
<path d="M60.0,306.3 C800.0,306.3 800.0,471.5 1540.0,471.5 L1540.0,483.4 C800.0,483.4 800.0,316.6 60.0,316.6 Z" fill="#3572A5" fill-opacity="0.60" stroke="#3572A5" stroke-width="0.3"/>
<path d="M60.0,471.6 C800.0,471.6 800.0,237.6 1540.0,237.6 L1540.0,248.7 C800.0,248.7 800.0,483.9 60.0,483.9 Z" fill="#E34C26" fill-opacity="0.60" stroke="#E34C26" stroke-width="0.3"/>
<path d="M60.0,456.8 C800.0,456.8 800.0,452.0 1540.0,452.0 L1540.0,465.5 C800.0,465.5 800.0,471.6 60.0,471.6 Z" fill="#E34C26" fill-opacity="0.60" stroke="#E34C26" stroke-width="0.3"/>
<path d="M60.0,490.9 C800.0,490.9 800.0,426.5 1540.0,426.5 L1540.0,446.0 C800.0,446.0 800.0,512.4 60.0,512.4 Z" fill="#DEA584" fill-opacity="0.60" stroke="#DEA584" stroke-width="0.3"/>
<path d="M60.0,255.5 C800.0,255.5 800.0,373.4 1540.0,373.4 L1540.0,419.6 C800.0,419.6 800.0,306.3 60.0,306.3 Z" fill="#3572A5" fill-opacity="0.60" stroke="#3572A5" stroke-width="0.3"/>
<path d="M60.0,332.8 C800.0,332.8 800.0,254.7 1540.0,254.7 L1540.0,361.9 C800.0,361.9 800.0,450.8 60.0,450.8 Z" fill="#3178C6" fill-opacity="0.60" stroke="#3178C6" stroke-width="0.3"/>
<path d="M60.0,60.0 C800.0,60.0 800.0,60.0 1540.0,60.0 L1540.0,237.6 C800.0,237.6 800.0,255.5 60.0,255.5 Z" fill="#3572A5" fill-opacity="0.60" stroke="#3572A5" stroke-width="0.3"/>
<rect x="40" y="60.0" width="20" height="266.8" fill="#3572A5" rx="2"/>
<rect x="40" y="332.8" width="20" height="118.0" fill="#3178C6" rx="2"/>
<rect x="40" y="456.8" width="20" height="28.0" fill="#E34C26" rx="2"/>
<rect x="40" y="490.9" width="20" height="21.5" fill="#DEA584" rx="2"/>
<rect x="40" y="518.4" width="20" height="13.1" fill="#F1E05A" rx="2"/>
<rect x="1540" y="60.0" width="20" height="188.7" fill="#2f80ed" rx="2"/>
<rect x="1540" y="254.7" width="20" height="112.7" fill="#eb5757" rx="2"/>
<rect x="1540" y="373.4" width="20" height="46.1" fill="#f2994a" rx="2"/>
<rect x="1540" y="425.6" width="20" height="20.4" fill="#56ccf2" rx="2"/>
<rect x="1540" y="452.0" width="20" height="13.4" fill="#bb6bd9" rx="2"/>
<rect x="1540" y="471.5" width="20" height="11.9" fill="#27ae60" rx="2"/>
<rect x="1540" y="489.4" width="20" height="11.9" fill="#e91e63" rx="2"/>
<rect x="1540" y="507.3" width="20" height="11.9" fill="#00bcd4" rx="2"/>
<rect x="1540" y="525.2" width="20" height="11.9" fill="#ff5722" rx="2"/>
<text x="800.0" y="560" text-anchor="middle" class="sub">语言</text>
<rect x="591.0" y="574.0" width="14" height="14" fill="#3572A5" rx="2"/><text x="611.0" y="586.0" class="legend-label" text-anchor="start">Python</text>
<rect x="671.0" y="574.0" width="14" height="14" fill="#3178C6" rx="2"/><text x="691.0" y="586.0" class="legend-label" text-anchor="start">TypeScript</text>
<rect x="783.0" y="574.0" width="14" height="14" fill="#E34C26" rx="2"/><text x="803.0" y="586.0" class="legend-label" text-anchor="start">HTML</text>
<rect x="847.0" y="574.0" width="14" height="14" fill="#DEA584" rx="2"/><text x="867.0" y="586.0" class="legend-label" text-anchor="start">Rust</text>
<rect x="911.0" y="574.0" width="14" height="14" fill="#F1E05A" rx="2"/><text x="931.0" y="586.0" class="legend-label" text-anchor="start">JavaScript</text>
<text x="800.0" y="619" text-anchor="middle" class="sub">仓库</text>
<rect x="75.0" y="635.0" width="14" height="14" fill="#2f80ed" rx="2"/><text x="95.0" y="647.0" class="legend-label" text-anchor="start">WutheringWavesUID</text>
<rect x="243.0" y="635.0" width="14" height="14" fill="#eb5757" rx="2"/><text x="263.0" y="647.0" class="legend-label" text-anchor="start">chiral-pulse</text>
<rect x="371.0" y="635.0" width="14" height="14" fill="#f2994a" rx="2"/><text x="391.0" y="647.0" class="legend-label" text-anchor="start">WutheringWaves_OverSea_StaticAssets</text>
<rect x="683.0" y="635.0" width="14" height="14" fill="#56ccf2" rx="2"/><text x="703.0" y="647.0" class="legend-label" text-anchor="start">blackhole_sim</text>
<rect x="819.0" y="635.0" width="14" height="14" fill="#bb6bd9" rx="2"/><text x="839.0" y="647.0" class="legend-label" text-anchor="start">WutheringWaves_RedBlackList</text>
<rect x="1067.0" y="635.0" width="14" height="14" fill="#27ae60" rx="2"/><text x="1087.0" y="647.0" class="legend-label" text-anchor="start">MoonShadow1976</text>
<rect x="1211.0" y="635.0" width="14" height="14" fill="#e91e63" rx="2"/><text x="1231.0" y="647.0" class="legend-label" text-anchor="start">wutheringwaves_gacha_record_converter</text>
<rect x="539.0" y="657.0" width="14" height="14" fill="#00bcd4" rx="2"/><text x="559.0" y="669.0" class="legend-label" text-anchor="start">astrbot_plugin_ExchangeRateQuery</text>
<rect x="827.0" y="657.0" width="14" height="14" fill="#ff5722" rx="2"/><text x="847.0" y="669.0" class="legend-label" text-anchor="start">astrbot_plugin_livingmemory</text>
</svg>